<?xml version="1.0" encoding="UTF-8" standalone="no"?>
<svg
   xmlns:dc="http://purl.org/dc/elements/1.1/"
   xmlns:cc="http://creativecommons.org/ns#"
   xmlns:rdf="http://www.w3.org/1999/02/22-rdf-syntax-ns#"
   xmlns:svg="http://www.w3.org/2000/svg"
   xmlns="http://www.w3.org/2000/svg"
   xmlns:sodipodi="http://sodipodi.sourceforge.net/DTD/sodipodi-0.dtd"
   xmlns:inkscape="http://www.inkscape.org/namespaces/inkscape"
   height="400"
   id="Layer_1"
   version="1.1"
   viewBox="0 0 400 400"
   width="400"
   xml:space="preserve"
   inkscape:version="0.91 r13725"
   sodipodi:docname="delete.svg"><metadata
     id="metadata32"><rdf:RDF><cc:Work
         rdf:about=""><dc:format>image/svg+xml</dc:format><dc:type
           rdf:resource="http://purl.org/dc/dcmitype/StillImage" /><dc:title></dc:title></cc:Work></rdf:RDF></metadata><defs
     id="defs30" /><sodipodi:namedview
     pagecolor="#ffffff"
     bordercolor="#666666"
     borderopacity="1"
     objecttolerance="10"
     gridtolerance="10"
     guidetolerance="10"
     inkscape:pageopacity="0"
     inkscape:pageshadow="2"
     inkscape:window-width="1462"
     inkscape:window-height="951"
     id="namedview28"
     showgrid="false"
     showguides="true"
     inkscape:guide-bbox="true"
     inkscape:snap-intersection-paths="true"
     inkscape:zoom="0.921875"
     inkscape:cx="-16.04318"
     inkscape:cy="325.75561"
     inkscape:window-x="75"
     inkscape:window-y="34"
     inkscape:window-maximized="0"
     inkscape:current-layer="Layer_1"><sodipodi:guide
       position="-16.542373,26.033898"
       orientation="0,1"
       id="guide4160" /><sodipodi:guide
       position="201.76271,545.62712"
       orientation="1,0"
       id="guide4146" /></sodipodi:namedview><g
     id="g3"
     style="fill:#000000;stroke:#000000;stroke-width:1.28463793;stroke-miterlimit:4;stroke-dasharray:none;stroke-opacity:1"
     transform="matrix(4.2465576,0,0,5.136934,-84.43619,-120.75966)"><path
       d="m 84.958,38.343 -34.667,0 c -0.828,0 -1.5,-0.671 -1.5,-1.5 l 0,-5.006 c 0,-3.584 2.916,-6.5 6.5,-6.5 l 24.667,0 c 3.584,0 6.5,2.916 6.5,6.5 l 0,5.006 c 0,0.829 -0.672,1.5 -1.5,1.5 z m -33.167,-3 31.667,0 0,-3.506 c 0,-1.93 -1.57,-3.5 -3.5,-3.5 l -24.667,0 c -1.93,0 -3.5,1.57 -3.5,3.5 l 0,3.506 z"
       style="fill:#000000;stroke:#000000;stroke-width:1.28463793;stroke-miterlimit:4;stroke-dasharray:none;stroke-opacity:1"
       id="path5"
       inkscape:connector-curvature="0" /></g><g
     id="g7"
     style="fill:#000000;stroke:#000000;stroke-width:1.33754098;stroke-miterlimit:4;stroke-dasharray:none;stroke-opacity:1"
     transform="matrix(4.2465576,0,0,4.7386133,-84.43619,-116.08172)"><path
       d="m 50.313,95.374 c -0.828,0 -1.5,-0.671 -1.5,-1.5 l 0,-32.681 c 0,-0.829 0.672,-1.5 1.5,-1.5 0.828,0 1.5,0.671 1.5,1.5 l 0,32.681 c 0,0.828 -0.672,1.5 -1.5,1.5 z"
       style="fill:#000000;stroke:#000000;stroke-width:1.33754098;stroke-miterlimit:4;stroke-dasharray:none;stroke-opacity:1"
       id="path9"
       inkscape:connector-curvature="0" /></g><g
     id="g11"
     style="fill:#000000;stroke:#000000;stroke-width:1.3375411;stroke-miterlimit:4;stroke-dasharray:none;stroke-opacity:1"
     transform="matrix(4.2465576,0,0,4.7386129,-84.43619,-116.08172)"><path
       d="m 67.636,95.374 c -0.828,0 -1.5,-0.671 -1.5,-1.5 l 0,-32.681 c 0,-0.829 0.672,-1.5 1.5,-1.5 0.828,0 1.5,0.671 1.5,1.5 l 0,32.681 c 0,0.828 -0.672,1.5 -1.5,1.5 z"
       style="fill:#000000;stroke:#000000;stroke-width:1.3375411;stroke-miterlimit:4;stroke-dasharray:none;stroke-opacity:1"
       id="path13"
       inkscape:connector-curvature="0" /></g><g
     id="g15"
     transform="matrix(4.2465576,0,0,4.7987574,-84.43619,-119.67194)"
     style="stroke:#000000;stroke-width:1.32913268;stroke-miterlimit:4;stroke-dasharray:none;stroke-opacity:1"><path
       d="m 84.958,95.374 c -0.828,0 -1.5,-0.671 -1.5,-1.5 l 0,-32.681 c 0,-0.829 0.672,-1.5 1.5,-1.5 0.828,0 1.5,0.671 1.5,1.5 l 0,32.681 c 0,0.828 -0.672,1.5 -1.5,1.5 z"
       style="fill:#000000;stroke:#000000;stroke-width:1.32913268;stroke-miterlimit:4;stroke-dasharray:none;stroke-opacity:1"
       id="path17"
       inkscape:connector-curvature="0" /></g><g
     id="g19"
     transform="matrix(4.2465576,0,0,5.136934,-84.43619,-120.75966)"
     style="stroke:#000000;stroke-width:1.28463793;stroke-miterlimit:4;stroke-dasharray:none;stroke-opacity:1"><path
       d="m 97.751,50.542 -60.254,0 c -3.249,0 -5.892,-2.916 -5.892,-6.5 l 0,-2.199 c 0,-3.584 2.643,-6.5 5.892,-6.5 l 60.254,0 c 3.249,0 5.892,2.916 5.892,6.5 l 0,2.199 c 0,3.584 -2.643,6.5 -5.892,6.5 z M 37.497,38.343 c -1.595,0 -2.892,1.57 -2.892,3.5 l 0,2.199 c 0,1.93 1.297,3.5 2.892,3.5 l 60.254,0 c 1.595,0 2.892,-1.57 2.892,-3.5 l 0,-2.199 c 0,-1.93 -1.297,-3.5 -2.892,-3.5 l -60.254,0 z"
       style="fill:#000000;stroke:#000000;stroke-width:1.28463793;stroke-miterlimit:4;stroke-dasharray:none;stroke-opacity:1"
       id="path21"
       inkscape:connector-curvature="0" /></g><g
     id="g23"
     transform="matrix(4.2465576,0,0,4.8248239,-84.43619,-121.19835)"
     style="stroke:#000000;stroke-width:1.32553744;stroke-miterlimit:4;stroke-dasharray:none;stroke-opacity:1"><path
       d="m 91.592,106.62261 -47.935,0 c -3.336,0 -6.051,-2.75309 -6.051,-6.13685 l 0,-48.224294 c 0,-0.782685 0.672,-1.416196 1.5,-1.416196 l 57.036,0 c 0.828,0 1.5,0.633511 1.5,1.416196 l 0,48.224294 c 0.001,3.38376 -2.714,6.13685 -6.05,6.13685 z m -50.986,-52.944949 0,46.808099 c 0,1.82217 1.368,3.30446 3.051,3.30446 l 47.935,0 c 1.683,0 3.051,-1.48229 3.051,-3.30446 l 0,-46.808099 -54.037,0 z"
       id="path25"
       inkscape:connector-curvature="0"
       style="stroke:#000000;stroke-width:1.32553744;stroke-miterlimit:4;stroke-dasharray:none;stroke-opacity:1" /></g><rect
     height="417.12207"
     id="_x3C_Slice_x3E__8_"
     style="fill:none"
     width="379.44281"
     x="8.3101301"
     y="-25.608889" /></svg>